<svg id="visual" viewBox="0 0 900 600" width="900" height="600" xmlns="http://www.w3.org/2000/svg" xmlns:xlink="http://www.w3.org/1999/xlink" version="1.1"><path d="M0 109L13.7 130C27.3 151 54.7 193 82 213C109.3 233 136.7 231 163.8 220C191 209 218 189 245.2 182C272.3 175 299.7 181 327 189C354.3 197 381.7 207 409 196C436.3 185 463.7 153 491 145C518.3 137 545.7 153 573 150C600.3 147 627.7 125 654.8 132C682 139 709 175 736.2 174C763.3 173 790.7 135 818 132C845.3 129 872.7 161 886.3 177L900 193L900 0L886.3 0C872.7 0 845.3 0 818 0C790.7 0 763.3 0 736.2 0C709 0 682 0 654.8 0C627.7 0 600.3 0 573 0C545.7 0 518.3 0 491 0C463.7 0 436.3 0 409 0C381.7 0 354.3 0 327 0C299.7 0 272.3 0 245.2 0C218 0 191 0 163.8 0C136.7 0 109.3 0 82 0C54.7 0 27.3 0 13.7 0L0 0Z" fill="#004cbb"></path><path d="M0 175L13.7 193C27.3 211 54.7 247 82 269C109.3 291 136.7 299 163.8 288C191 277 218 247 245.2 240C272.3 233 299.7 249 327 256C354.3 263 381.7 261 409 246C436.3 231 463.7 203 491 205C518.3 207 545.7 239 573 238C600.3 237 627.7 203 654.8 209C682 215 709 261 736.2 256C763.3 251 790.7 195 818 190C845.3 185 872.7 231 886.3 254L900 277L900 191L886.3 175C872.7 159 845.3 127 818 130C790.7 133 763.3 171 736.2 172C709 173 682 137 654.8 130C627.7 123 600.3 145 573 148C545.7 151 518.3 135 491 143C463.7 151 436.3 183 409 194C381.7 205 354.3 195 327 187C299.7 179 272.3 173 245.2 180C218 187 191 207 163.8 218C136.7 229 109.3 231 82 211C54.7 191 27.3 149 13.7 128L0 107Z" fill="#0059dd"></path><path d="M0 307L13.7 329C27.3 351 54.7 395 82 409C109.3 423 136.7 407 163.8 394C191 381 218 371 245.2 363C272.3 355 299.7 349 327 357C354.3 365 381.7 387 409 382C436.3 377 463.7 345 491 335C518.3 325 545.7 337 573 339C600.3 341 627.7 333 654.8 345C682 357 709 389 736.2 386C763.3 383 790.7 345 818 339C845.3 333 872.7 359 886.3 372L900 385L900 275L886.3 252C872.7 229 845.3 183 818 188C790.7 193 763.3 249 736.2 254C709 259 682 213 654.8 207C627.7 201 600.3 235 573 236C545.7 237 518.3 205 491 203C463.7 201 436.3 229 409 244C381.7 259 354.3 261 327 254C299.7 247 272.3 231 245.2 238C218 245 191 275 163.8 286C136.7 297 109.3 289 82 267C54.7 245 27.3 209 13.7 191L0 173Z" fill="#0066ff"></path><path d="M0 541L13.7 541C27.3 541 54.7 541 82 539C109.3 537 136.7 533 163.8 529C191 525 218 521 245.2 517C272.3 513 299.7 509 327 515C354.3 521 381.7 537 409 538C436.3 539 463.7 525 491 520C518.3 515 545.7 519 573 525C600.3 531 627.7 539 654.8 544C682 549 709 551 736.2 545C763.3 539 790.7 525 818 518C845.3 511 872.7 511 886.3 511L900 511L900 383L886.3 370C872.7 357 845.3 331 818 337C790.7 343 763.3 381 736.2 384C709 387 682 355 654.8 343C627.7 331 600.3 339 573 337C545.7 335 518.3 323 491 333C463.7 343 436.3 375 409 380C381.7 385 354.3 363 327 355C299.7 347 272.3 353 245.2 361C218 369 191 379 163.8 392C136.7 405 109.3 421 82 407C54.7 393 27.3 349 13.7 327L0 305Z" fill="#3c80ff"></path><path d="M0 601L13.7 601C27.3 601 54.7 601 82 601C109.3 601 136.7 601 163.8 601C191 601 218 601 245.2 601C272.3 601 299.7 601 327 601C354.3 601 381.7 601 409 601C436.3 601 463.7 601 491 601C518.3 601 545.7 601 573 601C600.3 601 627.7 601 654.8 601C682 601 709 601 736.2 601C763.3 601 790.7 601 818 601C845.3 601 872.7 601 886.3 601L900 601L900 509L886.3 509C872.7 509 845.3 509 818 516C790.7 523 763.3 537 736.2 543C709 549 682 547 654.8 542C627.7 537 600.3 529 573 523C545.7 517 518.3 513 491 518C463.7 523 436.3 537 409 536C381.7 535 354.3 519 327 513C299.7 507 272.3 511 245.2 515C218 519 191 523 163.8 527C136.7 531 109.3 535 82 537C54.7 539 27.3 539 13.7 539L0 539Z" fill="#6198ff"></path></svg>